<svg width="1577" height="937" viewBox="0 0 1577 937" fill="none" xmlns="http://www.w3.org/2000/svg">
<g opacity="0.3">
<path d="M50.8848 76.2487C50.8848 76.2487 58.1226 26.9544 53.9867 10.0713C53.9867 10.0713 111.149 9.87904 130.62 18.0734" stroke="#FC4E00" stroke-width="16.9065" stroke-linecap="round" stroke-linejoin="round"/>
<path d="M95.7383 149.641C95.7383 149.641 107.185 101.152 104.513 83.9761C104.513 83.9761 161.483 88.7004 180.177 98.5428" stroke="#FC4E00" stroke-width="16.9065" stroke-linecap="round" stroke-linejoin="round"/>
<path d="M138.307 240.456C138.307 240.456 154.695 193.414 153.816 176.046C153.816 176.046 209.99 186.639 227.568 198.358" stroke="#FC4E00" stroke-width="16.9065" stroke-linecap="round" stroke-linejoin="round"/>
<path d="M166.781 348.31C166.781 348.31 185.237 302.037 185.128 284.651C185.128 284.651 240.78 297.716 257.827 310.204" stroke="#FC4E00" stroke-width="16.9065" stroke-linecap="round" stroke-linejoin="round"/>
<path d="M181.504 442.962C181.504 442.962 208.378 401.029 211.563 383.935C211.563 383.935 263.738 407.31 278.104 422.801" stroke="#FC4E00" stroke-width="16.9065" stroke-linecap="round" stroke-linejoin="round"/>
<path d="M162.975 543.592C162.975 543.592 198.661 508.856 205.642 492.934C205.642 492.934 251.147 527.552 261.633 545.9" stroke="#FC4E00" stroke-width="16.9065" stroke-linecap="round" stroke-linejoin="round"/>
<path d="M143.137 636.596C143.137 636.596 185.237 609.989 195.348 595.853C195.348 595.853 232.718 639.132 239.178 659.265" stroke="#FC4E00" stroke-width="16.9065" stroke-linecap="round" stroke-linejoin="round"/>
<path d="M107.104 723.438C107.104 723.438 152.544 703.076 164.558 690.514C164.558 690.514 195.422 738.655 198.963 759.502" stroke="#FC4E00" stroke-width="16.9065" stroke-linecap="round" stroke-linejoin="round"/>
<path d="M67.4922 797.178C67.4922 797.178 115.65 784.515 129.559 774.096C129.559 774.096 152.142 826.641 152.233 847.781" stroke="#FC4E00" stroke-width="16.9065" stroke-linecap="round" stroke-linejoin="round"/>
<path d="M10.0645 871.165C10.0645 871.165 58.8812 861.387 73.3845 851.801C73.3845 851.801 92.8105 905.59 91.6576 926.703" stroke="#FC4E00" stroke-width="16.9065" stroke-linecap="round" stroke-linejoin="round"/>
</g>
<g opacity="0.3">
<path d="M1526.03 76.2487C1526.03 76.2487 1518.79 26.9544 1522.93 10.0713C1522.93 10.0713 1465.77 9.87904 1446.3 18.0734" stroke="#FC4E00" stroke-width="16.9065" stroke-linecap="round" stroke-linejoin="round"/>
<path d="M1481.18 149.641C1481.18 149.641 1469.73 101.152 1472.4 83.9761C1472.4 83.9761 1415.43 88.7004 1396.74 98.5428" stroke="#FC4E00" stroke-width="16.9065" stroke-linecap="round" stroke-linejoin="round"/>
<path d="M1438.61 240.456C1438.61 240.456 1422.22 193.414 1423.1 176.046C1423.1 176.046 1366.93 186.639 1349.35 198.358" stroke="#FC4E00" stroke-width="16.9065" stroke-linecap="round" stroke-linejoin="round"/>
<path d="M1410.13 348.31C1410.13 348.31 1391.68 302.037 1391.79 284.651C1391.79 284.651 1336.13 297.716 1319.09 310.204" stroke="#FC4E00" stroke-width="16.9065" stroke-linecap="round" stroke-linejoin="round"/>
<path d="M1395.41 442.962C1395.41 442.962 1368.54 401.029 1365.35 383.935C1365.35 383.935 1313.18 407.31 1298.81 422.801" stroke="#FC4E00" stroke-width="16.9065" stroke-linecap="round" stroke-linejoin="round"/>
<path d="M1413.94 543.592C1413.94 543.592 1378.26 508.856 1371.27 492.934C1371.27 492.934 1325.77 527.552 1315.28 545.9" stroke="#FC4E00" stroke-width="16.9065" stroke-linecap="round" stroke-linejoin="round"/>
<path d="M1433.78 636.596C1433.78 636.596 1391.68 609.989 1381.57 595.853C1381.57 595.853 1344.2 639.132 1337.74 659.265" stroke="#FC4E00" stroke-width="16.9065" stroke-linecap="round" stroke-linejoin="round"/>
<path d="M1469.81 723.438C1469.81 723.438 1424.37 703.076 1412.36 690.514C1412.36 690.514 1381.49 738.655 1377.95 759.502" stroke="#FC4E00" stroke-width="16.9065" stroke-linecap="round" stroke-linejoin="round"/>
<path d="M1509.42 797.178C1509.42 797.178 1461.27 784.515 1447.36 774.096C1447.36 774.096 1424.77 826.641 1424.68 847.781" stroke="#FC4E00" stroke-width="16.9065" stroke-linecap="round" stroke-linejoin="round"/>
<path d="M1566.85 871.165C1566.85 871.165 1518.03 861.387 1503.53 851.801C1503.53 851.801 1484.11 905.59 1485.26 926.703" stroke="#FC4E00" stroke-width="16.9065" stroke-linecap="round" stroke-linejoin="round"/>
</g>
</svg>
