<svg width="423" height="234" viewBox="0 0 423 234" fill="none" xmlns="http://www.w3.org/2000/svg">
<path d="M421.453 47.5468C413.693 27.9896 388.298 24.2015 382.611 23.5848C361.624 -7.02842 311.142 0.812087 309.114 1.12042C306.91 1.34066 304.529 1.78114 301.663 2.44186C292.14 4.77639 282.97 8.52045 274.504 12.2205C271.066 13.7181 267.627 15.3038 264.232 16.9336C261.454 18.255 258.853 19.7967 256.34 21.2943C254.224 22.5717 252.063 23.8491 249.859 24.9503C245.891 26.9324 241.526 28.7824 236.985 30.3682C233.722 31.5134 230.46 32.4825 227.241 33.2753C225.742 33.6277 224.375 34.1122 222.876 34.2444C221.73 34.3325 220.584 34.4206 219.437 34.5087C218.908 34.5087 218.379 34.5968 217.894 34.6408C220.319 36.3587 222.656 38.1206 225.037 39.8384C225.918 40.4992 226.8 41.0718 227.726 41.6004C228.696 42.173 229.71 42.6134 230.636 43.2301C233.237 44.5956 235.927 45.7849 238.616 46.8861C238.748 46.9301 240.159 47.5909 240.203 47.5028C239.806 47.9432 239.41 48.3837 238.969 48.7801C232.929 54.9468 225.257 60.3207 216.175 64.7254C213.794 65.8707 203.433 68.9981 199.641 70.0993L194.439 71.5969L199.201 74.1517C199.641 74.3719 210.002 79.9219 212.78 81.0231C216.263 82.3886 220.055 83.4898 224.067 84.2386C226.58 84.7232 229.093 85.0315 231.738 85.2517C223.009 95.4708 208.547 105.073 208.371 105.205L207.181 106.042V110.932L210.355 108.773C211.016 108.377 211.678 107.936 212.295 107.496C213.794 106.483 215.249 105.47 216.704 104.413C218.688 102.959 220.672 101.461 222.612 99.9196C224.816 98.1577 226.977 96.3077 229.049 94.3696C230.371 93.1363 231.65 91.9029 232.885 90.5815C234.119 89.2601 235.221 87.9386 236.368 86.5732C237.249 85.5601 238.131 84.547 239.057 83.5779C239.983 82.6089 241.041 81.7279 242.055 80.8469C239.101 80.9791 236.147 81.2434 233.193 80.9791C230.416 80.7148 227.638 80.4505 224.86 79.9219C221.113 79.2172 217.586 78.2041 214.411 76.9707C213.089 76.4422 209.341 74.5481 206.034 72.8302C210.399 71.5088 216.131 69.7029 218.115 68.7338C227.638 64.1088 235.706 58.4707 242.143 51.9075C243.378 50.6302 244.568 49.3087 245.714 47.9873L247.787 45.5206L244.7 44.5075C244.7 44.5075 235.75 41.5123 229.137 37.3718C232.179 36.5789 235.309 35.6539 238.396 34.5968C243.157 32.967 247.698 31.0729 251.843 28.9586C254.179 27.8134 256.384 26.4479 258.588 25.1265C261.146 23.5848 263.526 22.1753 266.128 20.9419C269.478 19.3562 272.873 17.7705 276.268 16.2729C284.557 12.6609 293.551 8.96093 302.721 6.75854C305.367 6.09782 307.527 5.70139 309.687 5.5252C310.216 5.43711 360.434 -2.35935 379.48 26.8884L380.097 27.8134L381.2 27.9015C381.508 27.9015 409.813 30.192 417.309 49.1325C417.397 49.3528 424.671 70.6719 404.126 85.6922V73.6672C404.126 70.1874 399.1 67.6326 397.865 67.1921C390.635 64.5933 382.081 69.9671 375.468 74.9445C368.59 80.0981 363.917 87.0136 362.374 94.4137V94.678L362.77 114.72L367.179 114.632L366.738 95.0744C368.105 88.8196 372.161 82.9172 378.113 78.4684C381.508 75.9576 390.502 69.2183 396.366 71.3326C397.557 71.7731 399.541 73.2267 399.717 73.6672V93.753L403.068 91.7267C430.712 74.8564 421.585 47.9432 421.453 47.5909V47.5468Z" fill="#DDDDDD"/>
<path d="M340.286 36.7992C340.286 36.7992 336.935 42.3932 341.211 45.6968C345.488 49.0004 350.911 43.0099 350.911 43.0099C350.823 43.098 350.823 43.4504 350.823 43.5385C350.691 43.979 350.558 44.4635 350.338 44.8599C349.324 47.0183 347.208 48.4278 344.915 49.0004C342.622 49.573 339.536 49.7052 337.376 48.5159C334.642 47.0183 333.32 42.7456 334.598 39.9266C335.568 37.7682 338.037 36.7551 340.286 36.7551V36.7992Z" fill="#DDDDDD"/>
<path d="M310.305 30.5445C310.305 30.5445 323.797 24.554 340.815 30.5445C340.815 30.5445 355.144 37.9886 362.242 31.7778L368.238 26.5361C368.238 26.5361 353.733 7.72771 310.305 14.1587C310.305 14.1587 291.832 16.6254 269.258 28.1218C269.258 28.1218 250.388 37.9005 245.142 38.6493C245.142 38.6493 258.986 44.6398 274.152 42.085C274.152 42.085 253.475 51.7315 238.749 64.8577C238.749 64.8577 230.504 71.7292 220.937 73.6673C220.937 73.6673 233.106 74.7685 246.685 68.9982C246.685 68.9982 271.772 57.2374 287.115 60.4529C287.115 60.4529 249.374 69.6149 235.795 106.967C235.795 106.967 258.06 80.2744 294.566 80.1863C294.566 80.1863 277.459 86.2209 265.07 110.183C265.07 110.183 312.333 84.9435 335.612 102.827C335.612 102.827 340.991 79.7018 360.611 69.5268C360.611 69.5268 346.282 72.8304 336.23 77.984C336.23 77.984 333.893 61.8184 345.047 54.022C345.047 54.022 323.752 57.8101 328.867 34.2004C328.867 34.2004 325.428 30.6326 310.261 30.6326L310.305 30.5445Z" fill="#DDDDDD"/>
<path d="M399.276 41.7767C399.276 41.7767 384.595 34.5969 372.514 34.5969C372.514 34.5969 366.298 36.4029 364.005 47.8113C364.005 47.8113 346.855 51.9077 341.123 72.3018C341.123 72.3018 376.394 51.247 396.146 57.7661C396.146 57.7661 404.302 60.7173 405.802 69.3506C405.802 69.3506 419.028 53.5375 399.276 41.7767ZM369.913 45.5208L369.781 45.6529C371.412 39.7065 375.16 38.9136 375.16 38.9136C378.466 39.7065 378.951 44.0232 378.951 44.0232C375.733 43.4946 369.913 45.4767 369.913 45.4767V45.5208Z" fill="#DDDDDD"/>
<path d="M123.853 120.975L101.896 124.234C101.147 124.234 100.574 124.807 100.574 125.556V227.262L90.2127 228.539C88.9342 228.716 88.0083 229.861 88.1846 231.138C88.361 232.416 89.5073 233.341 90.7859 233.164L123.809 228.892C124.558 228.892 125.131 228.319 125.131 227.57V122.252C125.131 121.503 124.558 120.931 123.809 120.931L123.853 120.975Z" fill="#FC4E00"/>
<path d="M9.44192 186.078C8.16334 186.342 7.36974 187.575 7.63428 188.853C7.89881 190.13 9.1333 190.923 10.4119 190.659C11.6905 190.394 12.4841 189.161 12.2195 187.884C11.955 186.606 10.7205 185.813 9.44192 186.078Z" fill="#FC4E00"/>
<path d="M89.4632 148.901C89.1987 147.448 88.8019 146.038 88.2728 144.629C87.7878 143.351 87.1706 142.118 86.4651 140.973C82.409 134.277 75.4429 130.621 67.9037 129.344C59.2182 127.89 50.3563 128.595 41.9353 131.106C37.7469 132.339 34.0875 134.145 30.9572 136.524C27.915 138.814 25.4901 141.721 23.7266 145.113L14.7324 147.007C13.4539 147.271 12.6603 148.505 12.9248 149.782C13.1893 151.06 14.4238 151.852 15.7024 151.588L28.4441 148.945C29.7227 148.681 30.9572 149.474 31.2217 150.751C31.4862 152.029 30.6926 153.262 29.4141 153.526L20.9931 155.288C20.949 155.993 20.8608 156.698 20.8608 157.446V183.611L15.3497 184.756C14.0711 185.02 13.2775 186.254 13.542 187.531C13.8066 188.808 15.0411 189.601 16.3197 189.337L20.8608 188.368V202.199C20.8608 206.736 21.7426 210.744 23.5502 214.268C25.3579 217.792 27.8269 220.743 30.9572 223.122C34.0875 225.5 37.7469 227.306 41.9353 228.54C46.1238 229.773 50.5768 230.39 55.3384 230.39C60.1 230.39 64.597 229.773 68.7414 228.54C72.9298 227.306 76.5892 225.5 79.7195 223.122C82.8499 220.743 85.3188 217.792 87.1265 214.268C88.9341 210.744 89.8159 206.692 89.8159 202.199V157.402C89.8159 154.539 89.9923 151.676 89.4632 148.813V148.901ZM65.2584 201.67C65.2584 204.269 64.2884 206.295 62.3926 207.749C60.4527 209.159 58.116 209.907 55.3825 209.907C52.6489 209.907 50.2681 209.203 48.3723 207.749C46.4324 206.34 45.5065 204.313 45.5065 201.67V158.107C45.5065 155.508 46.4765 153.482 48.3723 152.029C50.3122 150.619 52.6489 149.87 55.3825 149.87C58.116 149.87 60.9377 150.311 62.8776 151.72C64.8175 153.13 65.3025 155.464 65.3025 158.063V201.626L65.2584 201.67Z" fill="#FC4E00"/>
<path d="M10.588 150.267C10.3235 148.989 9.08901 148.196 7.81043 148.461L1.85843 149.738C0.579848 150.002 -0.213753 151.236 0.0507805 152.513C0.315314 153.79 1.5498 154.583 2.82838 154.319L8.78039 153.042C10.059 152.777 10.8526 151.544 10.588 150.267Z" fill="#FC4E00"/>
<path d="M245.449 210.171L152.113 224.971C151.364 224.971 150.791 224.399 150.791 223.65V191.935C150.791 191.187 151.364 190.614 152.113 190.614L220.98 179.162V175.506L152.113 186.958C151.364 186.958 150.791 186.385 150.791 185.637V172.114C150.791 171.365 151.364 170.792 152.113 170.792L244.171 155.992C244.92 155.992 245.494 156.565 245.494 157.314V188.5C245.494 189.249 244.92 189.821 244.171 189.821L175.348 200.172V203.828L245.405 193.477C246.155 193.477 246.728 194.05 246.728 194.799V208.806C246.728 209.555 246.155 210.127 245.405 210.127L245.449 210.171Z" fill="#FC4E00"/>
<path d="M244.259 151.236L222.303 154.98C221.554 154.98 220.98 154.407 220.98 153.658V103.047C220.98 102.299 221.554 101.726 222.303 101.726L244.259 97.2771C245.009 97.2771 245.582 97.8497 245.582 98.5985V149.958C245.582 150.707 245.009 151.28 244.259 151.28V151.236Z" fill="#FC4E00"/>
<path d="M141.708 119.433V134.585C141.708 135.422 142.458 136.039 143.251 135.907L182.447 128.859V131.414C182.447 131.414 182.799 134.541 178.743 136.215C178.743 136.215 164.37 143.483 137.961 153.878C137.299 154.143 136.947 154.891 137.167 155.552L142.017 169.251C142.281 169.956 142.987 170.308 143.692 170.044C149.777 167.886 176.803 158.019 191.926 149.518C196.158 147.139 199.994 143.747 202.816 139.827C204.932 136.876 206.475 133.484 206.96 129.828C206.96 129.74 206.96 129.652 206.96 129.608L207.136 107.232C207.136 106.879 207.136 106.527 207.136 106.175L142.722 118.2C142.105 118.332 141.664 118.86 141.664 119.477L141.708 119.433Z" fill="#FC4E00"/>
<path d="M258.853 125.512C258.632 124.895 258.853 124.19 259.47 123.882C263.438 121.9 278.296 114.28 295.667 102.783C295.667 102.783 298.974 101.241 299.018 96.5283V89.9211C299.018 89.2604 299.503 88.6878 300.164 88.5997C304.353 88.027 319.167 86.133 325.736 85.6485C326.485 85.6044 327.147 86.2211 327.147 86.9699V93.4009C327.147 93.4009 326.794 97.8057 330.938 99.2152C330.938 99.2152 350.602 107.937 366.342 113.31C367.047 113.531 367.4 114.28 367.135 114.984L361.536 131.678C361.316 132.383 360.61 132.736 359.905 132.515C353.115 130.357 320.048 119.918 313.611 117.319C313.215 117.143 312.818 117.187 312.465 117.407C308.806 119.521 287.687 131.59 266.304 141.149C265.599 141.457 264.805 141.149 264.54 140.4L258.941 125.512H258.853Z" fill="#FC4E00"/>
<path d="M297.651 170.44C297.651 170.44 317.315 168.37 328.337 167.841V170.572C328.337 170.969 328.381 171.409 328.513 171.806C328.601 172.158 328.778 172.51 328.998 172.775C329.571 173.568 330.674 174.008 331.599 174.316C331.599 174.316 357.259 182.201 365.504 184.227C366.253 184.403 366.694 185.196 366.43 185.945L361.007 201.494C360.786 202.11 360.125 202.507 359.464 202.331C353.335 200.921 324.413 194.094 313.391 190.57C313.082 190.482 312.774 190.482 312.465 190.614C307.395 192.905 302.28 195.151 297.166 197.309C287.202 201.538 276.841 204.974 266.745 208.762L265.069 208.013L259.426 193.83C259.161 193.169 259.47 192.376 260.175 192.112C265.466 189.997 286.408 181.584 290.332 179.426L295.27 177.091C295.27 177.091 298.092 175.726 297.827 172.422L297.739 170.352L297.651 170.44Z" fill="#FC4E00"/>
<path d="M367.047 135.819C322.032 134.982 267.053 144.188 258.764 145.598C258.147 145.686 257.706 146.258 257.706 146.875V162.16C257.706 162.953 258.411 163.569 259.249 163.481L271.55 161.587C272.344 161.455 273.093 162.072 273.093 162.908V170.617C273.093 171.41 273.799 172.026 274.592 171.938C280.809 171.101 292.845 169.648 296.637 169.163C297.298 169.075 297.783 168.503 297.783 167.842V159.825C297.695 159.164 298.224 158.592 298.885 158.504C312.509 156.786 323.222 156.081 326.926 155.861C327.675 155.861 328.337 156.433 328.337 157.182V159.737L337.772 158.856C339.05 158.724 340.196 159.693 340.329 160.97C340.461 162.248 339.491 163.393 338.212 163.525L328.337 164.45V165.155C328.337 165.948 328.998 166.52 329.747 166.476C336.184 165.992 347.868 165.507 351.748 165.331C352.453 165.331 353.026 164.714 353.026 164.01V155.949C353.026 155.244 353.599 154.627 354.305 154.627L367.179 154.275C367.884 154.275 368.457 153.658 368.457 152.954V137.096C368.457 136.392 367.884 135.775 367.179 135.775L367.047 135.819Z" fill="#FC4E00"/>
<path d="M255.149 126.016L250.54 126.448C249.255 126.568 248.311 127.707 248.432 128.99C248.552 130.274 249.692 131.217 250.976 131.097L255.586 130.665C256.87 130.544 257.814 129.406 257.694 128.122C257.573 126.838 256.434 125.895 255.149 126.016Z" fill="#FC4E00"/>
<path d="M255.12 194.261L254.242 194.343C252.957 194.464 252.013 195.602 252.134 196.886C252.254 198.169 253.394 199.112 254.679 198.992L255.557 198.91C256.841 198.789 257.785 197.651 257.665 196.367C257.544 195.083 256.405 194.14 255.12 194.261Z" fill="#FC4E00"/>
</svg>
