<svg width="48" height="26" viewBox="0 0 48 26" fill="none" xmlns="http://www.w3.org/2000/svg">
<path d="M30.3454 10.1091C29.8455 10.1091 29.3158 10.1648 28.7722 10.2523C27.1573 5.72583 22.8543 2.4801 17.7835 2.4801C11.9846 2.4801 7.18561 6.72222 6.27302 12.2769C2.76552 12.5613 0 15.471 0 19.0588C0 22.8355 3.05319 25.8963 6.82057 25.8963H30.3454C34.6941 25.8963 38.2194 22.3622 38.2194 18.0027C38.2194 13.6432 34.6941 10.1091 30.3454 10.1091Z" fill="#F9F9F9"/>
<path d="M41.7468 6.05789C41.35 6.05789 40.9295 6.10164 40.4989 6.17125C39.2174 2.57749 35.8011 0 31.7739 0C28.9032 0 26.342 1.30863 24.6438 3.36505C26.7467 4.70749 28.4568 6.6605 29.4964 9.02518C29.7979 8.99734 30.0796 8.98342 30.3474 8.98342C35.3091 8.98342 39.3463 13.0306 39.3463 18.0046C39.3463 18.2035 39.3384 18.3984 39.3245 18.5933H41.7488C45.2008 18.5933 48 15.7871 48 12.3266C48 8.86608 45.2008 6.05988 41.7488 6.05988L41.7468 6.05789Z" fill="#F9F9F9"/>
</svg>
