<svg width="90" height="32" viewBox="0 0 90 32" fill="none" xmlns="http://www.w3.org/2000/svg">
<path d="M30.0629 2.35373L24.7334 3.14686C24.5515 3.14686 24.4123 3.28619 24.4123 3.46839V28.2159L21.8974 28.5267C21.5871 28.5696 21.3623 28.8483 21.4051 29.1591C21.4479 29.4699 21.7262 29.695 22.0365 29.6521L30.0522 28.6125C30.2341 28.6125 30.3732 28.4731 30.3732 28.2909V2.66455C30.3732 2.48235 30.2341 2.34302 30.0522 2.34302L30.0629 2.35373Z" fill="#EA5519"/>
<path d="M2.29192 18.195C1.98157 18.2593 1.78894 18.5594 1.85315 18.8702C1.91736 19.181 2.21701 19.3739 2.52736 19.3096C2.83771 19.2453 3.03034 18.9452 2.96613 18.6344C2.90192 18.3236 2.60227 18.1307 2.29192 18.195Z" fill="#EA5519"/>
<path d="M21.7156 9.15979C21.6514 8.8061 21.5551 8.46312 21.4267 8.12015C21.309 7.80934 21.1591 7.50923 20.9879 7.23057C20.0033 5.60146 18.3125 4.71188 16.4825 4.40106C14.3742 4.04737 12.2231 4.21886 10.1791 4.82977C9.16243 5.12987 8.27418 5.5693 7.51436 6.14807C6.77593 6.7054 6.18733 7.41278 5.75926 8.23805L3.5761 8.69892C3.26575 8.76322 3.07312 9.06332 3.13733 9.37414C3.20154 9.68496 3.50119 9.87788 3.81154 9.81357L6.90435 9.1705C7.21471 9.10619 7.51436 9.29912 7.57857 9.60993C7.64278 9.92075 7.45015 10.2209 7.13979 10.2852L5.09575 10.7139C5.08505 10.8854 5.06365 11.0568 5.06365 11.239V17.6054L3.72592 17.8841C3.41557 17.9484 3.22294 18.2485 3.28715 18.5593C3.35136 18.8702 3.65101 19.0631 3.96136 18.9988L5.06365 18.763V22.1284C5.06365 23.2323 5.27768 24.2076 5.71646 25.0651C6.15523 25.9225 6.75453 26.6406 7.51436 27.2194C8.27418 27.7981 9.16243 28.2376 10.1791 28.5377C11.1958 28.8378 12.2767 28.9878 13.4324 28.9878C14.5882 28.9878 15.6798 28.8378 16.6858 28.5377C17.7025 28.2376 18.5907 27.7981 19.3505 27.2194C20.1104 26.6406 20.7097 25.9225 21.1484 25.0651C21.5872 24.2076 21.8012 23.2216 21.8012 22.1284V11.2283C21.8012 10.5317 21.844 9.83501 21.7156 9.13835V9.15979ZM15.8403 21.989C15.8403 22.6214 15.6049 23.1144 15.1447 23.4681C14.6738 23.8111 14.1067 23.9933 13.4431 23.9933C12.7796 23.9933 12.2017 23.8218 11.7416 23.4681C11.2707 23.1251 11.0459 22.6321 11.0459 21.989V11.3891C11.0459 10.7567 11.2814 10.2637 11.7416 9.91003C12.2124 9.56706 12.7796 9.38486 13.4431 9.38486C14.1067 9.38486 14.7916 9.49204 15.2624 9.83501C15.7333 10.178 15.851 10.746 15.851 11.3784V21.9783L15.8403 21.989Z" fill="#EA5519"/>
<path d="M2.57005 9.48107C2.50584 9.17026 2.20619 8.97733 1.89584 9.04164L0.451099 9.35246C0.140747 9.41677 -0.0518847 9.71686 0.012326 10.0277C0.0765367 10.3385 0.376187 10.5314 0.686538 10.4671L2.13128 10.1563C2.44163 10.092 2.63426 9.79189 2.57005 9.48107Z" fill="#EA5519"/>
<path d="M58.5787 27.9344L35.923 31.5356C35.7411 31.5356 35.6019 31.3963 35.6019 31.2141V23.4972C35.6019 23.315 35.7411 23.1757 35.923 23.1757L52.6392 20.3891V19.4995L35.923 22.2861C35.7411 22.2861 35.6019 22.1468 35.6019 21.9646V18.6742C35.6019 18.492 35.7411 18.3527 35.923 18.3527L58.2683 14.7515C58.4502 14.7515 58.5894 14.8908 58.5894 15.073V22.6612C58.5894 22.8434 58.4502 22.9828 58.2683 22.9828L41.5628 25.5015V26.391L58.568 23.8724C58.7499 23.8724 58.889 24.0117 58.889 24.1939V27.6022C58.889 27.7844 58.7499 27.9237 58.568 27.9237L58.5787 27.9344Z" fill="#EA5519"/>
<path d="M58.2897 13.594L52.9602 14.505C52.7783 14.505 52.6392 14.3657 52.6392 14.1834V1.86864C52.6392 1.68643 52.7783 1.5471 52.9602 1.5471L58.2897 0.4646C58.4716 0.4646 58.6108 0.603931 58.6108 0.786134V13.2831C58.6108 13.4654 58.4716 13.6047 58.2897 13.6047V13.594Z" fill="#EA5519"/>
<path d="M33.4079 5.85571V9.54265C33.4079 9.74629 33.5898 9.89634 33.7824 9.86419L43.2963 8.14933V8.77097C43.2963 8.77097 43.3819 9.53193 42.3974 9.93921C42.3974 9.93921 38.9086 11.7077 32.4982 14.2371C32.3377 14.3014 32.2521 14.4836 32.3056 14.6443L33.4828 17.9776C33.547 18.1491 33.7182 18.2348 33.8895 18.1705C35.3663 17.6453 41.9265 15.2445 45.5972 13.176C46.6246 12.5972 47.5556 11.772 48.2406 10.8181C48.7542 10.1 49.1288 9.2747 49.2465 8.38512C49.2465 8.36369 49.2465 8.34225 49.2465 8.33153L49.2893 2.88687C49.2893 2.80112 49.2893 2.71538 49.2893 2.62964L33.654 5.55561C33.5042 5.58776 33.3972 5.71638 33.3972 5.86643L33.4079 5.85571Z" fill="#EA5519"/>
<path d="M63.3955 10.7222C63.342 10.5721 63.3955 10.4006 63.5453 10.3256C64.5085 9.8433 68.115 7.98912 72.3315 5.19176C72.3315 5.19176 73.1341 4.81663 73.1448 3.66982V2.06214C73.1448 1.90138 73.2625 1.76205 73.4231 1.74061C74.4397 1.60128 78.0355 1.14041 79.6301 1.02251C79.812 1.0118 79.9725 1.16184 79.9725 1.34405V2.90886C79.9725 2.90886 79.8869 3.98064 80.8929 4.32361C80.8929 4.32361 85.6659 6.44574 89.4864 7.75332C89.6577 7.80691 89.7433 7.98912 89.6791 8.1606L88.3199 12.2227C88.2664 12.3942 88.0952 12.4799 87.924 12.4263C86.2759 11.9011 78.2496 9.361 76.6871 8.72865C76.5908 8.68578 76.4945 8.69649 76.4089 8.75008C75.5206 9.26454 70.3944 12.2012 65.2041 14.527C65.0329 14.602 64.8402 14.527 64.776 14.3448L63.4169 10.7222H63.3955Z" fill="#EA5519"/>
<path d="M72.8129 21.6541C72.8129 21.6541 77.5859 21.1503 80.2614 21.0217V21.6862C80.2614 21.7827 80.2721 21.8899 80.3042 21.9863C80.3256 22.0721 80.3684 22.1578 80.4219 22.2221C80.561 22.4151 80.8286 22.5222 81.0533 22.5973C81.0533 22.5973 87.2818 24.5157 89.283 25.0088C89.4649 25.0516 89.5719 25.2446 89.5077 25.4268L88.1914 29.2102C88.1379 29.3602 87.9774 29.4567 87.8168 29.4138C86.3293 29.0708 79.3089 27.4096 76.6335 26.5521C76.5586 26.5307 76.4837 26.5307 76.4087 26.5629C75.178 27.1202 73.9366 27.6668 72.6952 28.192C70.2766 29.2209 67.7617 30.0569 65.311 30.9786L64.9043 30.7964L63.5345 27.3453C63.4703 27.1845 63.5452 26.9916 63.7164 26.9273C65.0006 26.4128 70.084 24.3657 71.0364 23.8405L72.2351 23.2725C72.2351 23.2725 72.92 22.9402 72.8558 22.1364L72.8343 21.6326L72.8129 21.6541Z" fill="#EA5519"/>
<path d="M89.6576 13.2301C78.7311 13.0265 65.386 15.2665 63.374 15.6095C63.2242 15.6309 63.1172 15.7702 63.1172 15.9203V19.6394C63.1172 19.8323 63.2884 19.9823 63.4917 19.9609L66.4775 19.5C66.6702 19.4679 66.8521 19.6179 66.8521 19.8216V21.6972C66.8521 21.8901 67.0233 22.0402 67.216 22.0187C68.7249 21.8151 71.6465 21.4614 72.5669 21.3435C72.7274 21.3221 72.8451 21.1827 72.8451 21.022V19.0713C72.8237 18.9106 72.9521 18.7712 73.1127 18.7498C76.4195 18.3318 79.02 18.1603 79.919 18.1067C80.1009 18.1067 80.2614 18.2461 80.2614 18.4283V19.0499L82.5516 18.8355C82.862 18.8034 83.1402 19.0392 83.1723 19.35C83.2044 19.6608 82.969 19.9395 82.6586 19.9716L80.2614 20.1967V20.3682C80.2614 20.5611 80.422 20.7004 80.6039 20.6897C82.1664 20.5718 85.0023 20.4539 85.9441 20.4111C86.1153 20.4111 86.2544 20.261 86.2544 20.0895V18.1282C86.2544 17.9567 86.3936 17.8066 86.5648 17.8066L89.6897 17.7209C89.8609 17.7209 90.0001 17.5708 90.0001 17.3993V13.5409C90.0001 13.3694 89.8609 13.2194 89.6897 13.2194L89.6576 13.2301Z" fill="#EA5519"/>
<path d="M62.4889 10.8443L61.3701 10.9494C61.0582 10.9787 60.8291 11.2557 60.8584 11.568C60.8877 11.8804 61.1642 12.1098 61.4761 12.0805L62.5949 11.9754C62.9068 11.9461 63.1359 11.6691 63.1066 11.3568C63.0773 11.0444 62.8008 10.8149 62.4889 10.8443Z" fill="#EA5519"/>
<path d="M62.4817 27.4499L62.2686 27.4699C61.9567 27.4992 61.7276 27.7762 61.7568 28.0885C61.7861 28.4009 62.0627 28.6303 62.3745 28.601L62.5876 28.581C62.8995 28.5517 63.1286 28.2747 63.0994 27.9624C63.0701 27.65 62.7936 27.4206 62.4817 27.4499Z" fill="#EA5519"/>
</svg>
