<svg width="26" height="26" viewBox="0 0 26 26" fill="none" xmlns="http://www.w3.org/2000/svg">
<path d="M14.3734 19.4287C18.0598 18.5565 20.3429 14.8536 19.4728 11.158C18.6027 7.46246 14.909 5.1737 11.2226 6.04593C7.53615 6.91816 5.25306 10.6211 6.12313 14.3166C6.9932 18.0122 10.687 20.3009 14.3734 19.4287Z" fill="#F9F9F9"/>
<path d="M12.9172 3.56997C13.5188 3.56997 14.0073 3.0802 14.0073 2.47718V1.09279C14.0073 0.489774 13.5188 0 12.9172 0C12.3157 0 11.8271 0.489774 11.8271 1.09279V2.4786C11.8271 3.08161 12.3157 3.57139 12.9172 3.57139V3.56997Z" fill="#F9F9F9"/>
<path d="M12.9172 22.3286C12.3157 22.3286 11.8271 22.8184 11.8271 23.4214V24.8072C11.8271 25.4102 12.3157 25.9 12.9172 25.9C13.5188 25.9 14.0073 25.4102 14.0073 24.8072V23.4214C14.0073 22.8184 13.5188 22.3286 12.9172 22.3286Z" fill="#F9F9F9"/>
<path d="M19.5326 6.31745C19.9577 6.74352 20.6481 6.74352 21.0732 6.31745L22.0503 5.3379C22.4753 4.91183 22.4753 4.21963 22.0503 3.79356C21.6253 3.36748 20.9348 3.36748 20.5098 3.79356L19.5326 4.7731C19.1076 5.19918 19.1076 5.89137 19.5326 6.31745Z" fill="#F9F9F9"/>
<path d="M4.76134 19.581L3.78422 20.5606C3.3592 20.9867 3.3592 21.6788 3.78422 22.1049C4.20924 22.531 4.89972 22.531 5.32474 22.1049L6.30187 21.1254C6.72689 20.6993 6.72689 20.0071 6.30187 19.581C5.87685 19.155 5.18637 19.155 4.76134 19.581Z" fill="#F9F9F9"/>
<path d="M24.7458 11.8564H23.3634C22.7619 11.8564 22.2733 12.3462 22.2733 12.9492C22.2733 13.5523 22.7619 14.042 23.3634 14.042H24.7458C25.3473 14.042 25.8359 13.5523 25.8359 12.9492C25.8359 12.3462 25.3473 11.8564 24.7458 11.8564Z" fill="#F9F9F9"/>
<path d="M2.47105 11.8564H1.09009C0.488048 11.8564 0 12.3457 0 12.9492C0 13.5528 0.488048 14.042 1.09009 14.042H2.47105C3.07309 14.042 3.56114 13.5528 3.56114 12.9492C3.56114 12.3457 3.07309 11.8564 2.47105 11.8564Z" fill="#F9F9F9"/>
<path d="M21.0745 19.581C20.6495 19.155 19.959 19.155 19.534 19.581C19.109 20.0071 19.109 20.6993 19.534 21.1254L20.5111 22.1049C20.9361 22.531 21.6266 22.531 22.0516 22.1049C22.4766 21.6788 22.4766 20.9867 22.0516 20.5606L21.0745 19.581Z" fill="#F9F9F9"/>
<path d="M4.76134 6.31745C5.18637 6.74352 5.87685 6.74352 6.30187 6.31745C6.72689 5.89137 6.72689 5.19918 6.30187 4.7731L5.32474 3.79356C4.89972 3.36748 4.20924 3.36748 3.78422 3.79356C3.3592 4.21963 3.3592 4.91183 3.78422 5.3379L4.76134 6.31745Z" fill="#F9F9F9"/>
</svg>
